<svg xmlns="http://www.w3.org/2000/svg" width="1500" height="600" viewBox="0 0 1500 600">

<defs>
  <linearGradient id="g1" x1="0" y1="0" x2="1" y2="1">
    <stop offset="0%" stop-color="#111827"/>
    <stop offset="100%" stop-color="#334155"/>
  </linearGradient>
  <linearGradient id="g2" x1="0" y1="0" x2="1" y2="1">
    <stop offset="0%" stop-color="#f8fafc"/>
    <stop offset="100%" stop-color="#e2e8f0"/>
  </linearGradient>
  <filter id="shadow" x="-20%" y="-20%" width="140%" height="140%">
    <feDropShadow dx="0" dy="12" stdDeviation="16" flood-opacity=".12"/>
  </filter>
</defs>

<rect width="1500" height="600" fill="#f8fafc"/>
<text x="70" y="80" font-family="Arial" font-size="34" font-weight="700" fill="#111827">Analytics Toolkit</text>
<text x="70" y="118" font-family="Arial" font-size="18" fill="#64748b">Tools connected by one goal: clearer business decisions</text>
<g font-family="Arial" font-weight="700">
<circle cx="750" cy="320" r="100" fill="#111827" filter="url(#shadow)"/><text x="750" y="312" text-anchor="middle" font-size="25" fill="white">BUSINESS</text><text x="750" y="345" text-anchor="middle" font-size="25" fill="white">VALUE</text>
<circle cx="250" cy="230" r="70" fill="white" stroke="#dbe3ee"/><text x="250" y="238" text-anchor="middle" font-size="22" fill="#111827">SQL</text>
<circle cx="430" cy="430" r="70" fill="white" stroke="#dbe3ee"/><text x="430" y="438" text-anchor="middle" font-size="22" fill="#111827">Python</text>
<circle cx="590" cy="180" r="70" fill="white" stroke="#dbe3ee"/><text x="590" y="188" text-anchor="middle" font-size="22" fill="#111827">Power BI</text>
<circle cx="920" cy="180" r="70" fill="white" stroke="#dbe3ee"/><text x="920" y="188" text-anchor="middle" font-size="22" fill="#111827">Fabric</text>
<circle cx="1070" cy="430" r="70" fill="white" stroke="#dbe3ee"/><text x="1070" y="438" text-anchor="middle" font-size="22" fill="#111827">Azure</text>
<circle cx="1250" cy="230" r="70" fill="white" stroke="#dbe3ee"/><text x="1250" y="238" text-anchor="middle" font-size="22" fill="#111827">AWS</text>
<path d="M320 245 L650 295 M485 405 L660 355 M645 220 L700 250 M855 220 L800 250 M1015 405 L840 355 M1180 245 L850 295" stroke="#94a3b8" stroke-width="3"/>
</g>
</svg>