<svg xmlns="http://www.w3.org/2000/svg" width="1500" height="560" viewBox="0 0 1500 560">

<defs>
  <linearGradient id="g1" x1="0" y1="0" x2="1" y2="1">
    <stop offset="0%" stop-color="#111827"/>
    <stop offset="100%" stop-color="#334155"/>
  </linearGradient>
  <linearGradient id="g2" x1="0" y1="0" x2="1" y2="1">
    <stop offset="0%" stop-color="#f8fafc"/>
    <stop offset="100%" stop-color="#e2e8f0"/>
  </linearGradient>
  <filter id="shadow" x="-20%" y="-20%" width="140%" height="140%">
    <feDropShadow dx="0" dy="12" stdDeviation="16" flood-opacity=".12"/>
  </filter>
</defs>

<rect width="1500" height="560" fill="#f8fafc"/>
<text x="70" y="78" font-family="Arial" font-size="32" font-weight="700" fill="#111827">Cloud Analytics Architecture</text>
<text x="70" y="112" font-family="Arial" font-size="18" fill="#64748b">From live API data to stakeholder-ready reporting</text>
<g font-family="Arial">
  <rect x="70" y="190" width="220" height="190" rx="28" fill="white" stroke="#dbe3ee" filter="url(#shadow)"/>
  <circle cx="180" cy="255" r="35" fill="#111827"/><text x="180" y="267" text-anchor="middle" font-size="30" fill="white">☁</text>
  <text x="180" y="330" text-anchor="middle" font-size="21" font-weight="700" fill="#111827">Weather API</text>
  <text x="180" y="360" text-anchor="middle" font-size="15" fill="#64748b">Live observations</text>

  <rect x="365" y="190" width="220" height="190" rx="28" fill="white" stroke="#dbe3ee" filter="url(#shadow)"/>
  <circle cx="475" cy="255" r="35" fill="#111827"/><text x="475" y="267" text-anchor="middle" font-size="28" fill="white">⚡</text>
  <text x="475" y="330" text-anchor="middle" font-size="21" font-weight="700" fill="#111827">Event Hub</text>
  <text x="475" y="360" text-anchor="middle" font-size="15" fill="#64748b">Streaming ingestion</text>

  <rect x="660" y="190" width="220" height="190" rx="28" fill="white" stroke="#dbe3ee" filter="url(#shadow)"/>
  <circle cx="770" cy="255" r="35" fill="#111827"/><text x="770" y="267" text-anchor="middle" font-size="27" fill="white">◇</text>
  <text x="770" y="330" text-anchor="middle" font-size="21" font-weight="700" fill="#111827">Databricks</text>
  <text x="770" y="360" text-anchor="middle" font-size="15" fill="#64748b">PySpark transforms</text>

  <rect x="955" y="190" width="220" height="190" rx="28" fill="white" stroke="#dbe3ee" filter="url(#shadow)"/>
  <circle cx="1065" cy="255" r="35" fill="#111827"/><text x="1065" y="267" text-anchor="middle" font-size="27" fill="white">▦</text>
  <text x="1065" y="330" text-anchor="middle" font-size="21" font-weight="700" fill="#111827">Microsoft Fabric</text>
  <text x="1065" y="360" text-anchor="middle" font-size="15" fill="#64748b">Centralized analytics</text>

  <rect x="1250" y="190" width="180" height="190" rx="28" fill="#111827" filter="url(#shadow)"/>
  <circle cx="1340" cy="255" r="35" fill="white"/><text x="1340" y="267" text-anchor="middle" font-size="27" fill="#111827">▥</text>
  <text x="1340" y="330" text-anchor="middle" font-size="21" font-weight="700" fill="white">Power BI</text>
  <text x="1340" y="360" text-anchor="middle" font-size="15" fill="#cbd5e1">Interactive insights</text>

  <path d="M290 285 H350" stroke="#64748b" stroke-width="4"/><path d="M340 275 L350 285 L340 295" fill="none" stroke="#64748b" stroke-width="4"/>
  <path d="M585 285 H645" stroke="#64748b" stroke-width="4"/><path d="M635 275 L645 285 L635 295" fill="none" stroke="#64748b" stroke-width="4"/>
  <path d="M880 285 H940" stroke="#64748b" stroke-width="4"/><path d="M930 275 L940 285 L930 295" fill="none" stroke="#64748b" stroke-width="4"/>
  <path d="M1175 285 H1235" stroke="#64748b" stroke-width="4"/><path d="M1225 275 L1235 285 L1225 295" fill="none" stroke="#64748b" stroke-width="4"/>
</g>
</svg>